<svg width="760" height="229" viewBox="0 0 760 229" fill="none" xmlns="http://www.w3.org/2000/svg">
<g filter="url(#filter0_ii_431_14)">
<path d="M160.575 56.55C160.575 55.6167 160.283 55.15 159.7 55.15C159.233 55.15 158.242 55.6167 156.725 56.55C155.208 57.4833 154.042 57.95 153.225 57.95C152.875 57.95 152.292 58.0083 151.475 58.125C150.775 58.2417 149.958 58.3583 149.025 58.475C148.208 58.475 147.392 58.5333 146.575 58.65C145.758 58.7667 145.117 58.825 144.65 58.825C144.067 58.825 143.192 58.7083 142.025 58.475C125.458 54.7417 114.55 52.875 109.3 52.875C92.5001 52.875 79.0251 58.5917 68.8751 70.025C59.1918 81.1083 54.3501 95.1083 54.3501 112.025C54.3501 130.108 59.7168 144.867 70.4501 156.3C81.1835 167.733 95.5335 173.45 113.5 173.45C125.167 173.45 135.375 171.175 144.125 166.625C154.858 160.792 160.225 152.625 160.225 142.125C160.225 135.125 158.708 129.117 155.675 124.1C152.175 118.267 147.1 115.35 140.45 115.35C138.233 115.35 136.6 115.7 135.55 116.4C136.483 118.85 137.767 120.892 139.4 122.525C141.15 124.158 142.317 125.5 142.9 126.55C143.833 129 144.3 132.675 144.3 137.575C144.3 145.742 142.142 152.333 137.825 157.35C133.158 162.717 126.858 165.4 118.925 165.4C99.3251 165.4 89.5251 147.958 89.5251 113.075C89.5251 78.1917 96.5835 60.75 110.7 60.75C113.733 60.75 116.417 61.6833 118.75 63.55C121.083 65.3 122.25 67.6333 122.25 70.55C122.25 75.45 122.425 78.1333 122.775 78.6C124.992 82.5667 130.125 84.55 138.175 84.55C140.275 84.55 142.375 84.2 144.475 83.5C146.575 82.6833 148.558 81.6333 150.425 80.35C152.292 78.95 153.925 77.375 155.325 75.625C156.842 73.7583 157.95 71.775 158.65 69.675C159.933 66.175 160.575 61.8 160.575 56.55ZM262.343 55.5H239.068C243.851 61.5667 246.243 68.625 246.243 76.675V136.525C246.243 154.375 237.785 163.3 220.868 163.3C209.668 163.3 201.91 158.867 197.593 150C196.076 146.967 195.318 143.992 195.318 141.075V74.225C195.318 72.825 195.435 71.25 195.668 69.5C196.018 67.75 196.426 66 196.893 64.25C197.36 62.5 197.943 60.8667 198.643 59.35C199.343 57.8333 200.043 56.55 200.743 55.5H157.693C159.093 57.1333 160.318 59.9333 161.368 63.9C162.418 67.9833 162.943 71.1917 162.943 73.525V140.725C162.943 152.508 168.31 161.2 179.043 166.8C187.21 171.117 197.826 173.275 210.893 173.275C223.843 173.275 234.11 170.533 241.693 165.05C250.443 158.75 254.818 149.358 254.818 136.875V76.675C254.818 67.1083 257.326 60.05 262.343 55.5ZM372.764 163.475L371.889 162.775C369.906 162.775 367.981 161.492 366.114 158.925C365.297 157.758 364.597 156.65 364.014 155.6C363.431 154.433 363.022 153.267 362.789 152.1C360.572 142.417 356.956 133.842 351.939 126.375C345.872 117.158 338.756 111.675 330.589 109.925C328.256 109.458 326.156 109.05 324.289 108.7C322.539 108.35 321.022 108.058 319.739 107.825V107.475C323.122 106.892 326.506 106.25 329.889 105.55C333.389 104.85 336.831 104.208 340.214 103.625C349.197 101.525 355.906 98.8417 360.339 95.575C366.406 91.2583 369.439 85.425 369.439 78.075C369.439 72.0083 366.639 66.5833 361.039 61.8C355.906 57.4833 350.072 55.325 343.539 55.325H259.189C262.572 59.2917 264.264 64.3083 264.264 70.375V153.5C264.264 157.233 263.331 161.55 261.464 166.45C261.114 167.267 260.764 168.083 260.414 168.9C260.064 169.6 259.772 170.3 259.539 171H301.364C298.447 166.567 296.989 161.375 296.989 155.425V119.025C299.556 117.158 301.889 116.225 303.989 116.225C308.539 116.225 312.331 118.325 315.364 122.525C318.514 126.725 321.022 133.958 322.889 144.225C324.756 154.842 326.797 161.958 329.014 165.575C333.097 172.108 339.806 175.375 349.139 175.375C353.572 175.375 358.122 174.383 362.789 172.4C368.039 170.183 371.364 167.208 372.764 163.475ZM333.039 76.325C333.039 81.575 329.539 86.8833 322.539 92.25C321.489 93.0667 319.506 94.4083 316.589 96.275C313.789 98.025 310.056 100.242 305.389 102.925C304.456 103.508 303.581 104.033 302.764 104.5C302.064 104.967 301.481 105.375 301.014 105.725C300.081 106.192 299.264 106.6 298.564 106.95C297.864 107.183 297.281 107.417 296.814 107.65C296.697 107.067 296.581 106.425 296.464 105.725C296.464 105.025 296.464 104.208 296.464 103.275L296.639 63.9H316.764C321.081 63.9 324.756 64.8917 327.789 66.875C331.289 69.2083 333.039 72.3583 333.039 76.325ZM483.874 171C480.491 167.967 477.574 162.483 475.124 154.55L445.549 55.325H416.674C409.091 78.1917 402.616 98.025 397.249 114.825C391.882 131.625 387.507 145.625 384.124 156.825C382.607 161.725 378.932 166.392 373.099 170.825H403.549C402.616 169.892 401.682 169.017 400.749 168.2C399.932 167.383 399.057 166.508 398.124 165.575C396.374 163.825 395.499 160.792 395.499 156.475C395.499 148.542 398.707 144.575 405.124 144.575C406.524 144.575 409.441 145.1 413.874 146.15C418.191 147.2 421.107 147.725 422.624 147.725C429.507 147.725 434.757 146.092 438.374 142.825C438.841 144.225 439.249 145.625 439.599 147.025C440.066 148.425 440.532 149.767 440.999 151.05C441.932 154.55 442.399 157.408 442.399 159.625C442.399 163.708 441.174 167.5 438.724 171H483.874ZM434.699 129.175C434.816 129.292 434.757 129.875 434.524 130.925C433.941 133.725 431.666 135.125 427.699 135.125C426.182 135.125 423.207 134.717 418.774 133.9C414.341 133.083 411.541 132.442 410.374 131.975C407.341 131.975 403.607 133.083 399.174 135.3C400.924 130.4 402.382 126.142 403.549 122.525C404.832 118.908 405.882 115.817 406.699 113.25L419.474 74.925L434.699 129.175ZM593.345 82.8C593.345 73.9333 590.661 66.6417 585.295 60.925C579.811 55.0917 572.753 52.175 564.12 52.175C560.386 52.175 556.303 53.6917 551.87 56.725C547.086 60.1083 544.695 63.55 544.695 67.05C544.695 67.9833 544.928 68.7417 545.395 69.325C546.795 68.625 548.37 68.275 550.12 68.275C556.07 68.275 560.911 71.1917 564.645 77.025C567.911 82.0417 569.545 87.7583 569.545 94.175C569.545 98.8417 567.736 107.708 564.12 120.775C560.503 134.425 557.47 142.475 555.02 144.925C536.003 98.1417 526.495 71.4833 526.495 64.95C526.495 62.3833 527.661 59.2333 529.995 55.5H484.67C490.27 63.4333 494.645 71.775 497.795 80.525C498.845 83.325 500.595 88.225 503.045 95.225C505.495 102.225 508.703 111.383 512.67 122.7C521.07 146.85 525.27 159.275 525.27 159.975C525.27 164.175 524.453 167.792 522.82 170.825L565.345 171C564.528 168.2 562.953 164.292 560.62 159.275C562.953 154.258 564.995 149.942 566.745 146.325C568.611 142.592 570.128 139.442 571.295 136.875C573.628 132.442 575.961 128.067 578.295 123.75C580.745 119.433 583.136 115.117 585.47 110.8C590.72 99.95 593.345 90.6167 593.345 82.8ZM698.343 126.55C694.26 131.8 690.643 136.233 687.493 139.85C684.343 143.467 681.718 146.267 679.618 148.25C671.218 156.183 662.993 160.558 654.943 161.375C654.36 161.492 653.427 161.55 652.143 161.55C650.86 161.55 649.11 161.55 646.893 161.55C644.443 161.55 641.818 161.55 639.018 161.55C636.335 161.55 633.477 161.492 630.443 161.375L630.618 117.625C632.718 116.458 634.877 115.292 637.093 114.125C639.427 112.958 641.643 112.375 643.743 112.375C644.677 112.375 645.318 112.433 645.668 112.55C652.318 113.717 657.218 114.592 660.368 115.175C663.635 115.758 665.268 116.05 665.268 116.05C670.985 116.05 676.235 113.95 681.018 109.75C685.335 105.9 687.493 100.942 687.493 94.875C683.06 98.2583 679.268 99.95 676.118 99.95C673.318 99.95 668.943 99.425 662.993 98.375C657.043 97.325 652.61 96.8 649.693 96.8C646.077 96.8 642.46 98.0833 638.843 100.65C635.343 103.1 632.602 106.075 630.618 109.575V63.375H644.618H650.393C663.343 63.8417 677.81 72.2417 693.793 88.575V88.4C693.793 87.9333 693.677 86.7083 693.443 84.725C693.327 82.625 693.035 79.7083 692.568 75.975C692.218 72.9417 691.81 69.675 691.343 66.175C690.993 62.675 690.585 59.0583 690.118 55.325H593.343C597.66 58.2417 599.818 63.1417 599.818 70.025V152.625C599.818 152.392 599.76 152.625 599.643 153.325C599.643 153.908 599.585 154.9 599.468 156.3C599.002 162.6 596.785 167.442 592.818 170.825C594.452 170.942 597.252 171 601.218 171C605.302 171.117 610.668 171.175 617.318 171.175L692.743 170.825L698.343 126.55Z" fill="#B1B7B2"/>
<ellipse cx="388.106" cy="114.5" rx="366.663" ry="111.5" stroke="#B1B7B2" stroke-width="5"/>
</g>
<defs>
<filter id="filter0_ii_431_14" x="14.9423" y="-3.5" width="746.327" height="236" filterUnits="userSpaceOnUse" color-interpolation-filters="sRGB">
<feFlood flood-opacity="0" result="BackgroundImageFix"/>
<feBlend mode="normal" in="SourceGraphic" in2="BackgroundImageFix" result="shape"/>
<feColorMatrix in="SourceAlpha" type="matrix" values="0 0 0 0 0 0 0 0 0 0 0 0 0 0 0 0 0 0 127 0" result="hardAlpha"/>
<feOffset dx="4" dy="4"/>
<feGaussianBlur stdDeviation="2"/>
<feComposite in2="hardAlpha" operator="arithmetic" k2="-1" k3="1"/>
<feColorMatrix type="matrix" values="0 0 0 0 1 0 0 0 0 1 0 0 0 0 1 0 0 0 0.75 0"/>
<feBlend mode="normal" in2="shape" result="effect1_innerShadow_431_14"/>
<feColorMatrix in="SourceAlpha" type="matrix" values="0 0 0 0 0 0 0 0 0 0 0 0 0 0 0 0 0 0 127 0" result="hardAlpha"/>
<feOffset dx="-4" dy="-4"/>
<feGaussianBlur stdDeviation="2"/>
<feComposite in2="hardAlpha" operator="arithmetic" k2="-1" k3="1"/>
<feColorMatrix type="matrix" values="0 0 0 0 0 0 0 0 0 0 0 0 0 0 0 0 0 0 0.5 0"/>
<feBlend mode="normal" in2="effect1_innerShadow_431_14" result="effect2_innerShadow_431_14"/>
</filter>
</defs>
</svg>
