<svg width="40" height="40" viewBox="0 0 40 40" fill="none" xmlns="http://www.w3.org/2000/svg">
<path d="M12.9347 5.8696V1.62764C12.9347 1.25288 13.0835 0.893468 13.3485 0.628471C13.6135 0.363474 13.973 0.2146 14.3477 0.2146H25.6521C26.0268 0.2146 26.3862 0.363474 26.6512 0.628471C26.9162 0.893468 27.0651 1.25288 27.0651 1.62764V5.8696H38.3695C38.7442 5.8696 39.1036 6.01847 39.3686 6.28347C39.6336 6.54847 39.7825 6.90788 39.7825 7.28264C39.7825 7.6574 39.6336 8.01682 39.3686 8.28181C39.1036 8.54681 38.7442 8.69569 38.3695 8.69569H1.63033C1.25557 8.69569 0.896153 8.54681 0.631156 8.28181C0.366159 8.01682 0.217285 7.6574 0.217285 7.28264C0.217285 6.90788 0.366159 6.54847 0.631156 6.28347C0.896153 6.01847 1.25557 5.8696 1.63033 5.8696H12.9347ZM15.7608 5.8696H24.239V3.04351H15.7608V5.8696ZM5.86946 39.7826C5.4947 39.7826 5.13528 39.6338 4.87029 39.3688C4.60529 39.1038 4.45642 38.7444 4.45642 38.3696V8.69569H35.5434V38.3696C35.5434 38.7444 35.3945 39.1038 35.1295 39.3688C34.8645 39.6338 34.5051 39.7826 34.1303 39.7826H5.86946ZM15.7608 31.3044C16.1355 31.3044 16.4949 31.1555 16.7599 30.8905C17.0249 30.6255 17.1738 30.2661 17.1738 29.8913V15.7609C17.1738 15.3861 17.0249 15.0267 16.7599 14.7617C16.4949 14.4967 16.1355 14.3479 15.7608 14.3479C15.386 14.3479 15.0266 14.4967 14.7616 14.7617C14.4966 15.0267 14.3477 15.3861 14.3477 15.7609V29.8913C14.3477 30.2661 14.4966 30.6255 14.7616 30.8905C15.0266 31.1555 15.386 31.3044 15.7608 31.3044ZM24.239 31.3044C24.6138 31.3044 24.9732 31.1555 25.2382 30.8905C25.5032 30.6255 25.6521 30.2661 25.6521 29.8913V15.7609C25.6521 15.3861 25.5032 15.0267 25.2382 14.7617C24.9732 14.4967 24.6138 14.3479 24.239 14.3479C23.8643 14.3479 23.5048 14.4967 23.2398 14.7617C22.9749 15.0267 22.826 15.3861 22.826 15.7609V29.8913C22.826 30.2661 22.9749 30.6255 23.2398 30.8905C23.5048 31.1555 23.8643 31.3044 24.239 31.3044Z" fill="#222222"/>
</svg>
