<svg width="48" height="50" viewBox="0 0 48 50" fill="black" xmlns="http://www.w3.org/2000/svg">
<path d="M27.2602 0.41095H20.6164C9.45198 0.616429 0.479377 9.9315 0.684857 21.1644C0.890336 32.1233 9.72595 40.9589 20.6849 41.1644H39.589L43.6301 45.3767L47.6712 49.589V20.8219C47.6027 9.58903 38.4931 0.479443 27.2602 0.41095ZM45.6164 44.452L40.4109 39.1096H20.6849C10.5479 39.1096 2.39719 30.8904 2.39719 20.8219C2.39719 10.6849 10.6164 2.53424 20.6849 2.53424H27.3287C37.3972 2.53424 45.6164 10.7534 45.6164 20.8219V44.452Z" fill="black"/>
<path d="M35.3424 15.0685H12.6711V17.1233H35.3424V15.0685Z" fill="black"/>
<path d="M35.3424 23.0822H12.6711V25.137H35.3424V23.0822Z" fill="black"/>
</svg>
