<svg width="29" height="29" viewBox="0 0 29 29" fill="none" xmlns="http://www.w3.org/2000/svg">
<path d="M9.0625 18.125C11.2339 18.125 13.2023 17.3257 14.7664 16.0479L27.4539 28.7354L28.7354 27.4539L16.0479 14.7664C17.3257 13.2023 18.125 11.2339 18.125 9.0625C18.125 4.06544 14.0596 0 9.0625 0C4.06544 0 0 4.06544 0 9.0625C0 14.0596 4.06544 18.125 9.0625 18.125ZM9.0625 1.8125C13.0663 1.8125 16.3125 5.05869 16.3125 9.0625C16.3125 13.0663 13.0663 16.3125 9.0625 16.3125C5.05869 16.3125 1.8125 13.0663 1.8125 9.0625C1.8125 5.05869 5.05869 1.8125 9.0625 1.8125Z" fill="white"/>
</svg>
