<svg width="760" height="227" viewBox="0 0 760 227" fill="none" xmlns="http://www.w3.org/2000/svg">
<path d="M160.575 55.55C160.575 54.6167 160.283 54.15 159.7 54.15C159.233 54.15 158.242 54.6167 156.725 55.55C155.208 56.4833 154.042 56.95 153.225 56.95C152.875 56.95 152.292 57.0083 151.475 57.125C150.775 57.2417 149.958 57.3583 149.025 57.475C148.208 57.475 147.392 57.5333 146.575 57.65C145.758 57.7667 145.117 57.825 144.65 57.825C144.067 57.825 143.192 57.7083 142.025 57.475C125.458 53.7417 114.55 51.875 109.3 51.875C92.5001 51.875 79.0251 57.5917 68.8751 69.025C59.1918 80.1083 54.3501 94.1083 54.3501 111.025C54.3501 129.108 59.7168 143.867 70.4501 155.3C81.1835 166.733 95.5335 172.45 113.5 172.45C125.167 172.45 135.375 170.175 144.125 165.625C154.858 159.792 160.225 151.625 160.225 141.125C160.225 134.125 158.708 128.117 155.675 123.1C152.175 117.267 147.1 114.35 140.45 114.35C138.233 114.35 136.6 114.7 135.55 115.4C136.483 117.85 137.767 119.892 139.4 121.525C141.15 123.158 142.317 124.5 142.9 125.55C143.833 128 144.3 131.675 144.3 136.575C144.3 144.742 142.142 151.333 137.825 156.35C133.158 161.717 126.858 164.4 118.925 164.4C99.3251 164.4 89.5251 146.958 89.5251 112.075C89.5251 77.1917 96.5835 59.75 110.7 59.75C113.733 59.75 116.417 60.6833 118.75 62.55C121.083 64.3 122.25 66.6333 122.25 69.55C122.25 74.45 122.425 77.1333 122.775 77.6C124.992 81.5667 130.125 83.55 138.175 83.55C140.275 83.55 142.375 83.2 144.475 82.5C146.575 81.6833 148.558 80.6333 150.425 79.35C152.292 77.95 153.925 76.375 155.325 74.625C156.842 72.7583 157.95 70.775 158.65 68.675C159.933 65.175 160.575 60.8 160.575 55.55ZM262.343 54.5H239.068C243.851 60.5667 246.243 67.625 246.243 75.675V135.525C246.243 153.375 237.785 162.3 220.868 162.3C209.668 162.3 201.91 157.867 197.593 149C196.076 145.967 195.318 142.992 195.318 140.075V73.225C195.318 71.825 195.435 70.25 195.668 68.5C196.018 66.75 196.426 65 196.893 63.25C197.36 61.5 197.943 59.8667 198.643 58.35C199.343 56.8333 200.043 55.55 200.743 54.5H157.693C159.093 56.1333 160.318 58.9333 161.368 62.9C162.418 66.9833 162.943 70.1917 162.943 72.525V139.725C162.943 151.508 168.31 160.2 179.043 165.8C187.21 170.117 197.826 172.275 210.893 172.275C223.843 172.275 234.11 169.533 241.693 164.05C250.443 157.75 254.818 148.358 254.818 135.875V75.675C254.818 66.1083 257.326 59.05 262.343 54.5ZM372.764 162.475L371.889 161.775C369.906 161.775 367.981 160.492 366.114 157.925C365.297 156.758 364.597 155.65 364.014 154.6C363.431 153.433 363.022 152.267 362.789 151.1C360.572 141.417 356.956 132.842 351.939 125.375C345.872 116.158 338.756 110.675 330.589 108.925C328.256 108.458 326.156 108.05 324.289 107.7C322.539 107.35 321.022 107.058 319.739 106.825V106.475C323.122 105.892 326.506 105.25 329.889 104.55C333.389 103.85 336.831 103.208 340.214 102.625C349.197 100.525 355.906 97.8417 360.339 94.575C366.406 90.2583 369.439 84.425 369.439 77.075C369.439 71.0083 366.639 65.5833 361.039 60.8C355.906 56.4833 350.072 54.325 343.539 54.325H259.189C262.572 58.2917 264.264 63.3083 264.264 69.375V152.5C264.264 156.233 263.331 160.55 261.464 165.45C261.114 166.267 260.764 167.083 260.414 167.9C260.064 168.6 259.772 169.3 259.539 170H301.364C298.447 165.567 296.989 160.375 296.989 154.425V118.025C299.556 116.158 301.889 115.225 303.989 115.225C308.539 115.225 312.331 117.325 315.364 121.525C318.514 125.725 321.022 132.958 322.889 143.225C324.756 153.842 326.797 160.958 329.014 164.575C333.097 171.108 339.806 174.375 349.139 174.375C353.572 174.375 358.122 173.383 362.789 171.4C368.039 169.183 371.364 166.208 372.764 162.475ZM333.039 75.325C333.039 80.575 329.539 85.8833 322.539 91.25C321.489 92.0667 319.506 93.4083 316.589 95.275C313.789 97.025 310.056 99.2417 305.389 101.925C304.456 102.508 303.581 103.033 302.764 103.5C302.064 103.967 301.481 104.375 301.014 104.725C300.081 105.192 299.264 105.6 298.564 105.95C297.864 106.183 297.281 106.417 296.814 106.65C296.697 106.067 296.581 105.425 296.464 104.725C296.464 104.025 296.464 103.208 296.464 102.275L296.639 62.9H316.764C321.081 62.9 324.756 63.8917 327.789 65.875C331.289 68.2083 333.039 71.3583 333.039 75.325ZM483.874 170C480.491 166.967 477.574 161.483 475.124 153.55L445.549 54.325H416.674C409.091 77.1917 402.616 97.025 397.249 113.825C391.882 130.625 387.507 144.625 384.124 155.825C382.607 160.725 378.932 165.392 373.099 169.825H403.549C402.616 168.892 401.682 168.017 400.749 167.2C399.932 166.383 399.057 165.508 398.124 164.575C396.374 162.825 395.499 159.792 395.499 155.475C395.499 147.542 398.707 143.575 405.124 143.575C406.524 143.575 409.441 144.1 413.874 145.15C418.191 146.2 421.107 146.725 422.624 146.725C429.507 146.725 434.757 145.092 438.374 141.825C438.841 143.225 439.249 144.625 439.599 146.025C440.066 147.425 440.532 148.767 440.999 150.05C441.932 153.55 442.399 156.408 442.399 158.625C442.399 162.708 441.174 166.5 438.724 170H483.874ZM434.699 128.175C434.816 128.292 434.757 128.875 434.524 129.925C433.941 132.725 431.666 134.125 427.699 134.125C426.182 134.125 423.207 133.717 418.774 132.9C414.341 132.083 411.541 131.442 410.374 130.975C407.341 130.975 403.607 132.083 399.174 134.3C400.924 129.4 402.382 125.142 403.549 121.525C404.832 117.908 405.882 114.817 406.699 112.25L419.474 73.925L434.699 128.175ZM593.345 81.8C593.345 72.9333 590.661 65.6417 585.295 59.925C579.811 54.0917 572.753 51.175 564.12 51.175C560.386 51.175 556.303 52.6917 551.87 55.725C547.086 59.1083 544.695 62.55 544.695 66.05C544.695 66.9833 544.928 67.7417 545.395 68.325C546.795 67.625 548.37 67.275 550.12 67.275C556.07 67.275 560.911 70.1917 564.645 76.025C567.911 81.0417 569.545 86.7583 569.545 93.175C569.545 97.8417 567.736 106.708 564.12 119.775C560.503 133.425 557.47 141.475 555.02 143.925C536.003 97.1417 526.495 70.4833 526.495 63.95C526.495 61.3833 527.661 58.2333 529.995 54.5H484.67C490.27 62.4333 494.645 70.775 497.795 79.525C498.845 82.325 500.595 87.225 503.045 94.225C505.495 101.225 508.703 110.383 512.67 121.7C521.07 145.85 525.27 158.275 525.27 158.975C525.27 163.175 524.453 166.792 522.82 169.825L565.345 170C564.528 167.2 562.953 163.292 560.62 158.275C562.953 153.258 564.995 148.942 566.745 145.325C568.611 141.592 570.128 138.442 571.295 135.875C573.628 131.442 575.961 127.067 578.295 122.75C580.745 118.433 583.136 114.117 585.47 109.8C590.72 98.95 593.345 89.6167 593.345 81.8ZM698.343 125.55C694.26 130.8 690.643 135.233 687.493 138.85C684.343 142.467 681.718 145.267 679.618 147.25C671.218 155.183 662.993 159.558 654.943 160.375C654.36 160.492 653.427 160.55 652.143 160.55C650.86 160.55 649.11 160.55 646.893 160.55C644.443 160.55 641.818 160.55 639.018 160.55C636.335 160.55 633.477 160.492 630.443 160.375L630.618 116.625C632.718 115.458 634.877 114.292 637.093 113.125C639.427 111.958 641.643 111.375 643.743 111.375C644.677 111.375 645.318 111.433 645.668 111.55C652.318 112.717 657.218 113.592 660.368 114.175C663.635 114.758 665.268 115.05 665.268 115.05C670.985 115.05 676.235 112.95 681.018 108.75C685.335 104.9 687.493 99.9417 687.493 93.875C683.06 97.2583 679.268 98.95 676.118 98.95C673.318 98.95 668.943 98.425 662.993 97.375C657.043 96.325 652.61 95.8 649.693 95.8C646.077 95.8 642.46 97.0833 638.843 99.65C635.343 102.1 632.602 105.075 630.618 108.575V62.375H644.618H650.393C663.343 62.8417 677.81 71.2417 693.793 87.575V87.4C693.793 86.9333 693.677 85.7083 693.443 83.725C693.327 81.625 693.035 78.7083 692.568 74.975C692.218 71.9417 691.81 68.675 691.343 65.175C690.993 61.675 690.585 58.0583 690.118 54.325H593.343C597.66 57.2417 599.818 62.1417 599.818 69.025V151.625C599.818 151.392 599.76 151.625 599.643 152.325C599.643 152.908 599.585 153.9 599.468 155.3C599.002 161.6 596.785 166.442 592.818 169.825C594.452 169.942 597.252 170 601.218 170C605.302 170.117 610.668 170.175 617.318 170.175L692.743 169.825L698.343 125.55Z" fill="#222222"/>
<ellipse cx="388.106" cy="113.5" rx="366.663" ry="111.5" stroke="#222222" stroke-width="3"/>
</svg>
