<svg width="40" height="40" viewBox="0 0 40 40" fill="none" xmlns="http://www.w3.org/2000/svg">
<path d="M32.4138 37.2758C32.4138 37.828 31.9661 38.2758 31.4138 38.2758H2.72414C2.17185 38.2758 1.72414 37.828 1.72414 37.2758V8.58608C1.72414 8.03379 2.17185 7.58608 2.72414 7.58608H16.2069C16.683 7.58608 17.069 7.20012 17.069 6.72401V6.72401C17.069 6.2479 16.683 5.86194 16.2069 5.86194H1C0.447715 5.86194 0 6.30965 0 6.86194V38.9999C0 39.5522 0.447715 39.9999 1 39.9999H33.138C33.6902 39.9999 34.138 39.5522 34.138 38.9999V21.724C34.138 21.2479 33.752 20.8619 33.2759 20.8619V20.8619C32.7998 20.8619 32.4138 21.2479 32.4138 21.724V37.2758Z" fill="#222222"/>
<path d="M10.1375 23.3288C9.97398 23.4807 9.86593 23.683 9.8306 23.9034L8.89694 29.7276C8.78916 30.3999 9.37026 30.981 10.0426 30.8733L15.8668 29.9396C16.0872 29.9043 16.2895 29.7962 16.4414 29.6327L16.9541 29.0805L39.1155 6.97471C39.5082 6.58307 39.5071 5.94673 39.1132 5.55639L34.2129 0.700663C33.8219 0.313181 33.1912 0.314621 32.8019 0.703885L10.6897 22.8161L10.1375 23.3288ZM11.1009 26.6826C11.2416 25.8817 12.2284 25.5746 12.7986 26.1542L13.586 26.9545C14.1553 27.5331 13.8344 28.5131 13.0333 28.643L12.0781 28.7979C11.3989 28.908 10.814 28.3154 10.9331 27.6377L11.1009 26.6826ZM36.6688 5.5662C37.0508 5.95406 37.0524 6.57622 36.6723 6.96599L35.8274 7.83263C35.4363 8.23372 34.7921 8.23538 34.3989 7.8363L32.0273 5.42872C31.6383 5.03384 31.6447 4.3979 32.0416 4.01095L32.9084 3.16587C33.3024 2.78169 33.9328 2.78808 34.3189 3.18018L36.6688 5.5662ZM29.3504 6.62665C29.741 6.23613 30.3741 6.23613 30.7647 6.62665L33.1999 9.06186C33.5908 9.45283 33.5903 10.0869 33.1987 10.4772L17.0343 26.5888C16.6416 26.9803 16.0052 26.9774 15.616 26.5823L13.2253 24.1554C12.8398 23.764 12.8422 23.1349 13.2306 22.7465L29.3504 6.62665Z" fill="#222222"/>
</svg>
