<svg width="155" height="75" viewBox="0 0 155 75" fill="none" xmlns="http://www.w3.org/2000/svg">
<g filter="url(#filter0_d_32_97)">
<path d="M20.3589 38.716L20.4749 47.938L20.3009 52.984C20.2236 54.1053 19.8176 55.0527 19.0829 55.826C18.3869 56.5993 17.5362 57.1407 16.5309 57.45C14.8296 57.9913 13.4956 58.262 12.5289 58.262C11.6009 58.262 11.1369 57.8367 11.1369 56.986L11.2529 56.29C11.7169 54.9753 12.2776 52.868 12.9349 49.968L13.2249 48.518C14.3076 42.4087 14.8489 35.178 14.8489 26.826C14.8489 23.6553 14.5009 21.374 13.8049 19.982C13.3409 19.4793 13.1089 18.9187 13.1089 18.3C13.1089 16.5987 14.5202 15.2647 17.3429 14.298C20.2042 13.2927 22.6016 12.79 24.5349 12.79C26.5069 12.79 27.7056 13.602 28.1309 15.226C28.6336 16.966 29.0396 18.8027 29.3489 20.736C30.0062 24.796 30.6056 26.826 31.1469 26.826C31.5336 26.826 31.8429 26.594 32.0749 26.13C33.4282 22.6887 34.2982 20.3493 34.6849 19.112C35.1102 17.8747 35.3809 17.1013 35.4969 16.792C35.6129 16.4827 35.9996 15.9993 36.6569 15.342C37.3142 14.6847 38.1456 14.2013 39.1509 13.892C40.6589 13.312 42.3602 13.022 44.2549 13.022C47.3869 13.022 48.9529 13.6987 48.9529 15.052C48.9529 15.4773 48.7789 16.038 48.4309 16.734C47.4642 18.1647 46.7876 20.9487 46.4009 25.086C46.0142 29.2233 45.8209 33.3027 45.8209 37.324C45.8209 45.4053 46.3816 49.8327 47.5029 50.606C48.2376 51.186 48.6049 51.882 48.6049 52.694C48.6049 53.4673 48.0636 54.2407 46.9809 55.014C45.8982 55.7873 44.7189 56.3673 43.4429 56.754C42.1669 57.1407 41.0649 57.334 40.1369 57.334C39.2476 57.334 38.5516 57.1407 38.0489 56.754C37.5462 56.3673 37.2562 55.9807 37.1789 55.594L37.0629 55.014C36.8696 54.3567 36.7729 53.1387 36.7729 51.36C36.7729 48.4987 36.9662 44.748 37.3529 40.108L37.5269 38.02C37.8749 34.9267 38.0489 32.51 38.0489 30.77C38.0489 28.9913 37.8942 28.102 37.5849 28.102C36.8116 28.102 35.4002 31.7173 33.3509 38.948C32.5002 41.8867 31.7849 44.0133 31.2049 45.328L30.8569 46.14C30.3156 47.532 29.3682 48.228 28.0149 48.228C27.5896 48.228 27.2416 48.112 26.9709 47.88C26.7002 47.648 26.5262 47.3 26.4489 46.836C25.7529 45.0573 24.5736 40.3787 22.9109 32.8L22.0989 29.088C21.9056 28.4693 21.6542 28.16 21.3449 28.16C20.6876 28.16 20.3589 31.6787 20.3589 38.716ZM67.28 17.836L67.048 16.27C67.048 15.3807 67.6667 14.53 68.904 13.718C70.1413 12.8673 71.9973 12.442 74.472 12.442C76.2893 12.442 77.198 12.964 77.198 14.008C77.198 14.472 77.024 15.1487 76.676 16.038C76.328 16.8887 74.5687 20.3107 71.398 26.304C68.266 32.2973 66.5067 35.8353 66.12 36.918C65.4627 38.774 65.076 40.6493 64.96 42.544L64.902 43.53C65.0567 49.0593 65.1727 52.0173 65.25 52.404C65.366 52.7907 65.424 53.1387 65.424 53.448C65.424 54.376 64.9793 55.2073 64.09 55.942C62.234 57.3727 59.7207 58.088 56.55 58.088C55.2353 58.088 54.578 57.4693 54.578 56.232L54.752 55.072C54.7907 54.8787 54.926 54.26 55.158 53.216C55.39 52.172 55.5447 51.3987 55.622 50.896C55.738 50.3933 55.854 49.6007 55.97 48.518C56.2793 46.198 56.434 44.052 56.434 42.08C56.434 39.1413 56.318 37.1693 56.086 36.164C54.8487 32.1427 53.6887 28.682 52.606 25.782L52.026 24.332C51.3687 22.3987 50.3633 20.91 49.01 19.866C48.2753 19.2473 47.908 18.5707 47.908 17.836C47.908 16.444 48.9327 15.284 50.982 14.356C52.9927 13.428 54.7713 12.964 56.318 12.964C57.8647 12.964 58.7927 13.602 59.102 14.878C59.218 15.3033 59.4887 16.444 59.914 18.3C60.8807 22.7853 61.7893 26.0333 62.64 28.044C62.756 28.3533 62.8913 28.508 63.046 28.508C63.2007 28.508 63.394 28.3727 63.626 28.102C64.3607 26.9807 65.1533 25.2987 66.004 23.056C66.8547 20.7747 67.28 19.0347 67.28 17.836ZM94.1489 28.508L96.4689 28.45C97.5516 28.45 98.0929 29.03 98.0929 30.19C98.0929 31.7367 97.5516 32.9353 96.4689 33.786C95.3863 34.598 94.0329 35.062 92.4089 35.178C91.8289 35.178 91.2876 35.3327 90.7849 35.642C90.3209 35.9127 90.0696 36.222 90.0309 36.57C89.7603 39.3927 89.6249 42.6793 89.6249 46.43C89.6249 50.1807 89.8183 53.8733 90.2049 57.508C90.3209 57.8947 90.3789 58.32 90.3789 58.784C90.3789 59.2867 90.2629 59.77 90.0309 60.234C89.2963 61.5487 88.2136 62.612 86.7829 63.424C84.8496 64.468 83.1289 64.99 81.6209 64.99C80.1516 64.99 79.4169 64.4487 79.4169 63.366L79.6489 62.206C81.1569 56.0193 81.9109 47.8027 81.9109 37.556V36.86C81.9109 36.628 81.8143 36.512 81.6209 36.512C80.1516 36.512 79.4169 35.8547 79.4169 34.54C79.4169 33.7667 79.7456 32.684 80.4029 31.292C81.0603 29.8613 81.7563 29.0493 82.4909 28.856C82.5296 28.3533 82.5489 27.7347 82.5489 27C82.5489 23.4427 81.9689 21.2 80.8089 20.272C80.4223 19.808 80.2289 19.228 80.2289 18.532C80.2289 17.2947 81.0409 16.1927 82.6649 15.226C85.7583 13.5633 89.3736 12.732 93.5109 12.732C94.5163 12.732 95.3283 12.7707 95.9469 12.848C96.6043 12.9253 97.2423 13.196 97.8609 13.66C98.4796 14.0853 98.7889 14.7233 98.7889 15.574C98.7889 17.0047 97.7449 18.0293 95.6569 18.648C93.5689 19.2667 92.1576 20.1173 91.4229 21.2C90.6883 22.2827 90.3209 23.7907 90.3209 25.724C90.3209 26.1493 90.3596 26.7873 90.4369 27.638C90.4756 28.218 91.7129 28.508 94.1489 28.508ZM123.76 50.664C124.417 51.128 124.746 51.7273 124.746 52.462C124.746 53.8927 123.779 55.0913 121.846 56.058C119.951 57.0247 118.192 57.508 116.568 57.508C115.292 57.508 114.364 57.218 113.784 56.638C113.32 56.174 113.068 55.4973 113.03 54.608C112.991 53.68 112.952 52.694 112.914 51.65C112.875 50.606 112.836 49.6587 112.798 48.808C112.798 47.9573 112.624 47.242 112.276 46.662C111.928 46.0433 111.599 45.676 111.29 45.56C110.942 45.4053 109.975 45.328 108.39 45.328C106.843 45.328 105.644 45.502 104.794 45.85C103.943 46.2367 103.131 48.0347 102.358 51.244C102.164 52.0173 102.048 52.4427 102.01 52.52C100.966 56.0387 98.4331 57.798 94.4118 57.798C92.5171 57.798 91.5698 57.2373 91.5698 56.116C91.5698 55.304 91.8791 54.4147 92.4978 53.448L92.8458 52.926C95.7071 47.706 98.2978 41.1713 100.618 33.322C102.976 25.434 104.156 20.6393 104.156 18.938C104.156 18.2807 104.04 17.72 103.808 17.256C103.614 16.7533 103.518 16.3667 103.518 16.096C103.518 14.1627 105.18 13.196 108.506 13.196C110.555 13.196 112.314 13.602 113.784 14.414C115.292 15.1873 116.239 16.4247 116.626 18.126C118.25 30.886 119.68 39.47 120.918 43.878C121.807 47.706 122.754 49.968 123.76 50.664ZM109.434 29.03C109.395 28.566 109.26 28.334 109.028 28.334C108.912 28.334 108.718 28.508 108.448 28.856C106.862 33.032 106.07 35.9127 106.07 37.498C106.07 37.962 106.224 38.252 106.534 38.368C106.843 38.484 107.423 38.542 108.274 38.542C109.124 38.542 109.724 38.4453 110.072 38.252C110.458 38.02 110.652 37.6527 110.652 37.15C110.342 33.7473 109.994 31.2533 109.608 29.668L109.434 29.03ZM147.134 15.806C146.438 20.9487 145.181 26.6327 143.364 32.858C141.546 39.0447 139.922 43.9553 138.492 47.59L136.288 53.042C134.973 56.058 132.75 57.566 129.618 57.566C127.646 57.566 126.602 56.87 126.486 55.478C126.099 51.186 125.48 46.43 124.63 41.21C123.818 35.99 123.102 31.8333 122.484 28.74L121.498 24.158C121.111 22.418 120.531 21.1807 119.758 20.446C118.984 19.6727 118.598 18.9767 118.598 18.358C118.598 17.0433 119.642 15.806 121.73 14.646C123.779 13.4473 125.558 12.848 127.066 12.848C128.612 12.848 129.502 13.5827 129.734 15.052C130.275 17.604 130.778 21.7027 131.242 27.348C131.86 33.032 132.44 36.9373 132.982 39.064C133.136 39.4507 133.31 39.644 133.504 39.644C133.736 39.644 133.987 39.3927 134.258 38.89C134.567 38.3487 134.934 37.556 135.36 36.512C135.785 35.468 136.365 33.612 137.1 30.944C137.834 28.276 138.202 25.8593 138.202 23.694C138.202 21.49 137.738 19.7113 136.81 18.358C136.578 18.0487 136.462 17.662 136.462 17.198C136.462 15.9607 137.39 14.936 139.246 14.124C141.14 13.2733 142.842 12.848 144.35 12.848C146.244 12.848 147.192 13.6213 147.192 15.168C147.192 15.4387 147.172 15.6513 147.134 15.806Z" fill="#AF0000"/>
</g>
<defs>
<filter id="filter0_d_32_97" x="7.1369" y="12.442" width="144.055" height="60.548" filterUnits="userSpaceOnUse" color-interpolation-filters="sRGB">
<feFlood flood-opacity="0" result="BackgroundImageFix"/>
<feColorMatrix in="SourceAlpha" type="matrix" values="0 0 0 0 0 0 0 0 0 0 0 0 0 0 0 0 0 0 127 0" result="hardAlpha"/>
<feOffset dy="4"/>
<feGaussianBlur stdDeviation="2"/>
<feComposite in2="hardAlpha" operator="out"/>
<feColorMatrix type="matrix" values="0 0 0 0 0 0 0 0 0 0 0 0 0 0 0 0 0 0 0.2 0"/>
<feBlend mode="normal" in2="BackgroundImageFix" result="effect1_dropShadow_32_97"/>
<feBlend mode="normal" in="SourceGraphic" in2="effect1_dropShadow_32_97" result="shape"/>
</filter>
</defs>
</svg>
