<svg width="500" height="500" viewBox="0 0 500 500" fill="none" xmlns="http://www.w3.org/2000/svg">
<path d="M125 93.75C125 85.462 128.292 77.5134 134.153 71.6529C140.013 65.7924 147.962 62.5 156.25 62.5H343.75C352.038 62.5 359.987 65.7924 365.847 71.6529C371.708 77.5134 375 85.462 375 93.75V187.5C375 195.788 371.708 203.737 365.847 209.597C359.987 215.458 352.038 218.75 343.75 218.75H156.25C147.962 218.75 140.013 215.458 134.153 209.597C128.292 203.737 125 195.788 125 187.5V93.75ZM156.25 93.75V187.5H343.75V93.75H156.25ZM250 375C258.288 375 266.237 371.708 272.097 365.847C277.958 359.987 281.25 352.038 281.25 343.75C281.25 335.462 277.958 327.513 272.097 321.653C266.237 315.792 258.288 312.5 250 312.5C241.712 312.5 233.763 315.792 227.903 321.653C222.042 327.513 218.75 335.462 218.75 343.75C218.75 352.038 222.042 359.987 227.903 365.847C233.763 371.708 241.712 375 250 375Z" fill="#8C0000"/>
<path d="M343.75 343.75C343.75 368.614 333.873 392.46 316.291 410.041C298.71 427.623 274.864 437.5 250 437.5C225.136 437.5 201.29 427.623 183.709 410.041C166.127 392.46 156.25 368.614 156.25 343.75C156.25 318.886 166.127 295.04 183.709 277.459C201.29 259.877 225.136 250 250 250C274.864 250 298.71 259.877 316.291 277.459C333.873 295.04 343.75 318.886 343.75 343.75V343.75ZM250 406.25C266.576 406.25 282.473 399.665 294.194 387.944C305.915 376.223 312.5 360.326 312.5 343.75C312.5 327.174 305.915 311.277 294.194 299.556C282.473 287.835 266.576 281.25 250 281.25C233.424 281.25 217.527 287.835 205.806 299.556C194.085 311.277 187.5 327.174 187.5 343.75C187.5 360.326 194.085 376.223 205.806 387.944C217.527 399.665 233.424 406.25 250 406.25V406.25Z" fill="#8C0000"/>
<path d="M62.5 62.5C62.5 45.924 69.0848 30.0269 80.8058 18.3058C92.5268 6.5848 108.424 0 125 0L375 0C391.576 0 407.473 6.5848 419.194 18.3058C430.915 30.0269 437.5 45.924 437.5 62.5V437.5C437.5 454.076 430.915 469.973 419.194 481.694C407.473 493.415 391.576 500 375 500H125C108.424 500 92.5268 493.415 80.8058 481.694C69.0848 469.973 62.5 454.076 62.5 437.5V62.5ZM125 31.25C116.712 31.25 108.763 34.5424 102.903 40.4029C97.0424 46.2634 93.75 54.212 93.75 62.5V437.5C93.75 445.788 97.0424 453.737 102.903 459.597C108.763 465.458 116.712 468.75 125 468.75H375C383.288 468.75 391.237 465.458 397.097 459.597C402.958 453.737 406.25 445.788 406.25 437.5V62.5C406.25 54.212 402.958 46.2634 397.097 40.4029C391.237 34.5424 383.288 31.25 375 31.25H125Z" fill="#8C0000"/>
</svg>
