<svg width="50" height="45" viewBox="0 0 50 45" fill="none" xmlns="http://www.w3.org/2000/svg">
<path d="M35.4806 1.98699C41.9794 1.98699 47.2604 7.31575 47.2604 13.8961C47.2604 17.2765 45.8633 20.3215 43.6329 22.4892L24.6108 41.8172L5.25543 22.1408C3.23017 19.999 1.97399 17.0959 1.97399 13.8961C1.97399 7.31575 7.24224 1.98699 13.7539 1.98699C18.6504 1.98699 22.8419 5.00619 24.6236 9.31565C26.3797 5.0191 30.5841 1.98699 35.4806 1.98699ZM35.4806 0C31.148 0 27.1744 2.0386 24.6108 5.39327C22.0472 2.0386 18.0736 0 13.741 0C6.16552 0 0 6.23194 0 13.8961C0 17.4959 1.35872 20.915 3.83262 23.5214L23.2136 43.2236L24.6108 44.6429L26.008 43.2236L45.0173 23.8955C47.7091 21.2763 49.2216 17.7152 49.2216 13.8961C49.2216 6.23194 43.0561 0 35.4806 0Z" fill="black"/>
</svg>
