<svg width="198" height="198" viewBox="0 0 198 198" fill="none" xmlns="http://www.w3.org/2000/svg">
<path d="M98.5 63C78.3414 63 62 79.3414 62 99.5C62 119.659 78.3414 136 98.5 136C118.659 136 135 119.659 135 99.5C135 79.3414 118.659 63 98.5 63ZM68.0833 99.5C68.0833 82.7009 81.7009 69.0833 98.5 69.0833C105.876 69.0833 112.633 71.7098 117.898 76.0746L75.0746 118.898C70.7098 113.633 68.0833 106.876 68.0833 99.5ZM98.5 129.917C91.2669 129.917 84.6315 127.381 79.4105 123.166L122.164 80.4135C126.381 85.6315 128.917 92.2669 128.917 99.5C128.917 116.299 115.299 129.917 98.5 129.917Z" fill="#A0A0A0"/>
</svg>
