<svg width="52" height="52" viewBox="0 0 52 52" fill="none" xmlns="http://www.w3.org/2000/svg">
<path d="M25.9999 50.4833C39.5217 50.4833 50.4833 39.5218 50.4833 26C50.4833 12.4782 39.5217 1.51666 25.9999 1.51666C12.4782 1.51666 1.5166 12.4782 1.5166 26C1.5166 39.5218 12.4782 50.4833 25.9999 50.4833Z" stroke="black" stroke-width="2" stroke-miterlimit="10" stroke-linecap="round" stroke-linejoin="round"/>
<path d="M25.9998 32.2833C18.4165 32.2833 11.9165 36.6167 8.6665 43.1167C12.9998 47.6667 19.2832 50.2667 25.9998 50.2667C32.7165 50.2667 38.9998 47.45 43.3332 43.1167C40.0832 36.8333 33.5832 32.2833 25.9998 32.2833Z" stroke="black" stroke-width="2" stroke-miterlimit="10" stroke-linecap="round" stroke-linejoin="round"/>
<path d="M26 26.65C30.3078 26.65 33.8 23.1578 33.8 18.85C33.8 14.5422 30.3078 11.05 26 11.05C21.6921 11.05 18.2 14.5422 18.2 18.85C18.2 23.1578 21.6921 26.65 26 26.65Z" stroke="black" stroke-width="2" stroke-miterlimit="10" stroke-linecap="round" stroke-linejoin="round"/>
</svg>
