<svg width="45" height="45" viewBox="0 0 45 45" fill="none" xmlns="http://www.w3.org/2000/svg">
<path d="M22.5002 44.9504C34.8992 44.9504 44.9506 34.899 44.9506 22.5C44.9506 10.101 34.8992 0.0495911 22.5002 0.0495911C10.1012 0.0495911 0.0498047 10.101 0.0498047 22.5C0.0498047 34.899 10.1012 44.9504 22.5002 44.9504Z" fill="#222222"/>
<path d="M22.5005 31.4303C27.6346 31.4303 31.7965 27.2684 31.7965 22.1344C31.7965 17.0004 27.6346 12.8384 22.5005 12.8384C17.3665 12.8384 13.2046 17.0004 13.2046 22.1344C13.2046 27.2684 17.3665 31.4303 22.5005 31.4303Z" fill="white"/>
<path d="M32.7022 25.1003H12.2986C11.4466 25.1003 10.7559 24.4097 10.7559 23.5576V21.4424C10.7559 20.5904 11.4465 19.8997 12.2986 19.8997H32.7022C33.5542 19.8997 34.245 20.5903 34.245 21.4424V23.5576C34.245 24.4096 33.5542 25.1003 32.7022 25.1003Z" fill="white"/>
<path d="M25.1005 12.2982V32.7018C25.1005 33.5538 24.4098 34.2445 23.5577 34.2445H21.4427C20.5906 34.2445 19.8999 33.5539 19.8999 32.7018V12.2982C19.8999 11.4462 20.5906 10.7554 21.4427 10.7554H23.5577C24.4098 10.7554 25.1005 11.4462 25.1005 12.2982Z" fill="white"/>
<path d="M31.5529 17.125L17.1254 31.5524C16.5229 32.1549 15.5461 32.1549 14.9436 31.5524L13.4479 30.0568C12.8455 29.4543 12.8455 28.4775 13.4479 27.875L27.8755 13.4475C28.4779 12.8451 29.4547 12.8451 30.0573 13.4475L31.5529 14.9432C32.1554 15.5457 32.1554 16.5225 31.5529 17.125Z" fill="white"/>
<path d="M17.1253 13.4475L31.5528 27.8751C32.1553 28.4775 32.1553 29.4543 31.5528 30.0569L30.0572 31.5525C29.4547 32.155 28.4779 32.155 27.8754 31.5525L13.4479 17.125C12.8455 16.5225 12.8455 15.5457 13.4479 14.9432L14.9436 13.4475C15.546 12.8451 16.5228 12.8451 17.1253 13.4475Z" fill="white"/>
<path d="M22.5002 27.2396C25.3197 27.2396 27.6054 24.9539 27.6054 22.1344C27.6054 19.3149 25.3197 17.0292 22.5002 17.0292C19.6807 17.0292 17.395 19.3149 17.395 22.1344C17.395 24.9539 19.6807 27.2396 22.5002 27.2396Z" fill="#222222"/>
</svg>
