<svg width="50" height="50" viewBox="0 0 50 50" fill="none" xmlns="http://www.w3.org/2000/svg">
<g clip-path="url(#clip0_577_2)">
<path d="M25 50C20.0555 50 15.222 48.5338 11.1108 45.7868C6.99953 43.0397 3.79521 39.1352 1.90302 34.5671C0.0108317 29.9989 -0.484251 24.9723 0.480379 20.1228C1.44501 15.2732 3.82603 10.8187 7.32234 7.32234C10.8187 3.82603 15.2732 1.44501 20.1228 0.480379C24.9723 -0.484251 29.9989 0.0108317 34.5671 1.90302C39.1352 3.79521 43.0397 6.99953 45.7868 11.1108C48.5338 15.222 50 20.0555 50 25C50 28.2831 49.3534 31.534 48.097 34.5671C46.8406 37.6002 44.9991 40.3562 42.6777 42.6777C40.3562 44.9991 37.6002 46.8406 34.5671 48.097C31.534 49.3534 28.2831 50 25 50V50ZM25 2.00001C20.451 2.00001 16.0042 3.34894 12.2219 5.87621C8.43956 8.40348 5.4916 11.9956 3.75078 16.1983C2.00997 20.401 1.55449 25.0255 2.44195 29.4871C3.32941 33.9487 5.51995 38.0469 8.73656 41.2635C11.9532 44.4801 16.0514 46.6706 20.5129 47.5581C24.9745 48.4455 29.599 47.9901 33.8017 46.2492C38.0044 44.5084 41.5965 41.5605 44.1238 37.7781C46.6511 33.9958 48 29.549 48 25C48 18.9 45.5768 13.0499 41.2635 8.73656C36.9501 4.42322 31.1 2.00001 25 2.00001Z" fill="#010101"/>
<path d="M35.9999 37C35.8683 37.0008 35.7379 36.9755 35.616 36.9258C35.4942 36.876 35.3834 36.8027 35.2899 36.71L13.2899 14.71C13.1016 14.5217 12.9958 14.2663 12.9958 14C12.9958 13.7337 13.1016 13.4783 13.2899 13.29C13.4782 13.1017 13.7336 12.9959 13.9999 12.9959C14.2662 12.9959 14.5216 13.1017 14.7099 13.29L36.7099 35.29C36.8037 35.383 36.8781 35.4936 36.9288 35.6154C36.9796 35.7373 37.0057 35.868 37.0057 36C37.0057 36.132 36.9796 36.2627 36.9288 36.3846C36.8781 36.5064 36.8037 36.617 36.7099 36.71C36.6165 36.8027 36.5057 36.876 36.3838 36.9258C36.262 36.9755 36.1315 37.0008 35.9999 37Z" fill="#010101"/>
<path d="M13.9999 37C13.8683 37.0008 13.7379 36.9755 13.616 36.9258C13.4942 36.876 13.3834 36.8027 13.2899 36.71C13.1962 36.617 13.1218 36.5064 13.071 36.3846C13.0203 36.2627 12.9941 36.132 12.9941 36C12.9941 35.868 13.0203 35.7373 13.071 35.6154C13.1218 35.4936 13.1962 35.383 13.2899 35.29L35.2899 13.29C35.4782 13.1017 35.7336 12.9959 35.9999 12.9959C36.2662 12.9959 36.5216 13.1017 36.7099 13.29C36.8982 13.4783 37.004 13.7337 37.004 14C37.004 14.2663 36.8982 14.5217 36.7099 14.71L14.7099 36.71C14.6165 36.8027 14.5057 36.876 14.3838 36.9258C14.262 36.9755 14.1315 37.0008 13.9999 37Z" fill="#010101"/>
</g>
<defs>
<clipPath id="clip0_577_2">
<rect width="50" height="50" fill="white"/>
</clipPath>
</defs>
</svg>
