<svg width="155" height="70" viewBox="0 0 155 70" fill="none" xmlns="http://www.w3.org/2000/svg">
<rect x="1.5" y="1.5" width="152" height="67" rx="33.5" fill="white" stroke="#AF0000" stroke-width="3"/>
<path d="M47.81 27.966C50.802 27.966 52.298 28.85 52.298 30.618C52.298 31.1167 52.128 31.536 51.788 31.876C51.4706 32.216 51.0966 32.386 50.666 32.386C50.258 32.386 49.8613 32.2727 49.476 32.046C49.0906 31.8193 48.66 31.706 48.184 31.706C47.028 31.706 46.45 32.0347 46.45 32.692C46.45 32.9867 46.6313 33.236 46.994 33.44C49.6686 34.7773 51.278 35.8653 51.822 36.704C52.4793 37.6787 52.808 38.846 52.808 40.206C52.808 40.7047 52.6946 41.3053 52.468 42.008C52.2413 42.7107 51.9353 43.3113 51.55 43.81C51.1646 44.286 50.5526 44.728 49.714 45.136C48.8753 45.544 47.878 45.748 46.722 45.748C45.906 45.748 45.0333 45.612 44.104 45.34C42.2226 44.796 41.282 43.674 41.282 41.974C41.282 41.1807 41.5086 40.5007 41.962 39.934C42.4153 39.3447 42.982 39.05 43.662 39.05C44.342 39.05 44.8293 39.254 45.124 39.662C45.1466 39.6847 45.2146 39.7867 45.328 39.968C45.4413 40.1493 45.5433 40.2853 45.634 40.376C45.9286 40.6707 46.314 40.818 46.79 40.818C47.266 40.818 47.64 40.7047 47.912 40.478C48.184 40.2287 48.32 39.9 48.32 39.492C48.32 39.084 48.0026 38.6647 47.368 38.234C46.7333 37.8033 46.0306 37.4293 45.26 37.112C44.512 36.7947 43.8206 36.296 43.186 35.616C42.5513 34.9133 42.234 34.0973 42.234 33.168C42.234 31.5813 42.744 30.3233 43.764 29.394C44.8066 28.442 46.1553 27.966 47.81 27.966ZM54.1887 33.882C54.1887 33.5193 54.098 33.1793 53.9167 32.862C53.758 32.5447 53.5427 32.2613 53.2707 32.012C52.9987 31.7627 52.8627 31.4907 52.8627 31.196C52.8627 30.4253 53.452 29.7453 54.6307 29.156C55.8093 28.544 56.7953 28.238 57.5887 28.238C58.4047 28.238 58.824 28.646 58.8467 29.462C58.8467 30.0287 58.79 31.0487 58.6767 32.522C58.586 33.9727 58.5407 35.3213 58.5407 36.568C58.5407 39.5827 58.8127 41.4753 59.3567 42.246C59.674 42.4273 59.8327 42.7107 59.8327 43.096C59.8327 43.844 59.4133 44.4333 58.5747 44.864C57.7587 45.2947 56.8293 45.51 55.7867 45.51C54.404 45.51 53.7127 45.0453 53.7127 44.116C53.7127 44.0707 53.7467 43.81 53.8147 43.334C54.132 41.5207 54.2907 39.492 54.2907 37.248L54.1887 33.882ZM59.1867 23.07C59.1867 23.9087 58.7787 24.5887 57.9627 25.11C57.1693 25.6087 56.3987 25.858 55.6507 25.858C54.9027 25.858 54.3133 25.722 53.8827 25.45C53.4747 25.1553 53.2707 24.77 53.2707 24.294C53.2707 23.4327 53.6787 22.7413 54.4947 22.22C55.3107 21.676 56.0813 21.404 56.8067 21.404C57.5547 21.404 58.1327 21.5513 58.5407 21.846C58.9713 22.1407 59.1867 22.5487 59.1867 23.07ZM72.9585 28.442C72.5505 32.114 72.3465 35.854 72.3465 39.662C72.3465 43.4473 72.1425 46.1673 71.7345 47.822C71.3492 49.4767 70.5785 50.8367 69.4225 51.902C68.2892 52.9673 66.9292 53.5 65.3425 53.5C64.4132 53.5 63.6085 53.2393 62.9285 52.718C62.2485 52.2193 61.9085 51.5167 61.9085 50.61C61.9085 50.0433 62.0559 49.59 62.3505 49.25C62.6679 48.9327 62.9852 48.74 63.3025 48.672L63.7785 48.604C64.5945 48.5587 65.2745 48.3433 65.8185 47.958C66.3852 47.5727 66.7819 47.0967 67.0085 46.53C67.3712 45.6233 67.5525 44.7507 67.5525 43.912V43.64C67.5299 43.4813 67.4505 43.402 67.3145 43.402L66.9745 43.572C66.6799 44.0027 66.3059 44.3427 65.8525 44.592C65.4219 44.8187 65.0479 44.9547 64.7305 45L64.2885 45.034C63.3139 45.034 62.4865 44.7847 61.8065 44.286C61.1265 43.7647 60.6505 43.096 60.3785 42.28C59.9025 40.852 59.6645 39.526 59.6645 38.302C59.6645 37.078 59.7779 35.9333 60.0045 34.868C60.2312 33.78 60.5825 32.726 61.0585 31.706C61.5572 30.686 62.2599 29.8587 63.1665 29.224C64.0732 28.5893 65.0252 28.272 66.0225 28.272C67.0199 28.272 67.7792 28.4987 68.3005 28.952C68.3685 29.088 68.4705 29.156 68.6065 29.156C68.7425 29.156 68.8559 29.088 68.9465 28.952C69.7852 27.8867 70.7712 27.354 71.9045 27.354C72.6072 27.354 72.9585 27.7167 72.9585 28.442ZM66.2605 39.254C66.8272 39.254 67.2805 38.9593 67.6205 38.37C67.9832 37.7807 68.1532 36.9873 68.1305 35.99C68.1305 34.9927 67.9265 34.1313 67.5185 33.406C67.1332 32.6807 66.6685 32.318 66.1245 32.318C65.5805 32.318 65.1272 32.624 64.7645 33.236C64.4245 33.8253 64.2545 34.6073 64.2545 35.582C64.2545 36.534 64.4472 37.384 64.8325 38.132C65.2405 38.88 65.7165 39.254 66.2605 39.254ZM79.0363 36.33L78.9683 38.88C78.9683 39.56 79.0023 40.478 79.0703 41.634L79.1723 43.368C79.1723 44.116 78.9116 44.6713 78.3903 45.034C77.5516 45.6233 76.475 45.918 75.1603 45.918C74.231 45.918 73.7663 45.5213 73.7663 44.728L73.8343 44.184C74.401 41.532 74.6843 39.288 74.6843 37.452C74.707 35.616 74.6503 34.392 74.5143 33.78C74.401 33.168 74.1516 32.658 73.7663 32.25C73.381 31.8193 73.1883 31.468 73.1883 31.196C73.1883 30.448 73.7776 29.734 74.9563 29.054C76.135 28.374 77.0643 28.034 77.7443 28.034C78.447 28.034 78.8436 28.408 78.9343 29.156C78.9796 30.1533 79.1043 30.652 79.3083 30.652C79.3763 30.652 79.4556 30.618 79.5463 30.55C79.637 30.3913 79.773 30.1987 79.9543 29.972C80.1583 29.7453 80.5776 29.4507 81.2123 29.088C81.8696 28.7027 82.6176 28.51 83.4563 28.51C84.295 28.51 84.9863 28.85 85.5303 29.53C86.0743 30.21 86.403 31.0147 86.5163 31.944C86.5616 32.3293 86.5843 32.964 86.5843 33.848L86.4483 38.88C86.4483 40.4213 86.7996 41.4753 87.5023 42.042C87.9103 42.246 88.1143 42.5067 88.1143 42.824C88.1143 43.1187 88.0236 43.3907 87.8423 43.64C86.981 44.864 85.5756 45.476 83.6263 45.476C82.697 45.4533 82.153 45.0793 81.9943 44.354C81.9263 44.0367 81.8923 43.5493 81.8923 42.892C81.8923 42.212 81.949 41.158 82.0623 39.73C82.1983 38.2793 82.2663 37.214 82.2663 36.534C82.2663 34.5167 81.813 33.508 80.9063 33.508C80.317 33.508 79.8523 33.8253 79.5123 34.46C79.195 35.0947 79.0363 35.718 79.0363 36.33ZM95.4455 33.882C95.4455 33.5193 95.3549 33.1793 95.1735 32.862C95.0149 32.5447 94.7995 32.2613 94.5275 32.012C94.2555 31.7627 94.1195 31.4907 94.1195 31.196C94.1195 30.4253 94.7089 29.7453 95.8875 29.156C97.0662 28.544 98.0522 28.238 98.8455 28.238C99.6615 28.238 100.081 28.646 100.104 29.462C100.104 30.0287 100.047 31.0487 99.9335 32.522C99.8429 33.9727 99.7975 35.3213 99.7975 36.568C99.7975 39.5827 100.07 41.4753 100.614 42.246C100.931 42.4273 101.09 42.7107 101.09 43.096C101.09 43.844 100.67 44.4333 99.8315 44.864C99.0155 45.2947 98.0862 45.51 97.0435 45.51C95.6609 45.51 94.9695 45.0453 94.9695 44.116C94.9695 44.0707 95.0035 43.81 95.0715 43.334C95.3889 41.5207 95.5475 39.492 95.5475 37.248L95.4455 33.882ZM100.444 23.07C100.444 23.9087 100.036 24.5887 99.2195 25.11C98.4262 25.6087 97.6555 25.858 96.9075 25.858C96.1595 25.858 95.5702 25.722 95.1395 25.45C94.7315 25.1553 94.5275 24.77 94.5275 24.294C94.5275 23.4327 94.9355 22.7413 95.7515 22.22C96.5675 21.676 97.3382 21.404 98.0635 21.404C98.8115 21.404 99.3895 21.5513 99.7975 21.846C100.228 22.1407 100.444 22.5487 100.444 23.07ZM106.625 36.33L106.557 38.88C106.557 39.56 106.591 40.478 106.659 41.634L106.761 43.368C106.761 44.116 106.501 44.6713 105.979 45.034C105.141 45.6233 104.064 45.918 102.749 45.918C101.82 45.918 101.355 45.5213 101.355 44.728L101.423 44.184C101.99 41.532 102.273 39.288 102.273 37.452C102.296 35.616 102.239 34.392 102.103 33.78C101.99 33.168 101.741 32.658 101.355 32.25C100.97 31.8193 100.777 31.468 100.777 31.196C100.777 30.448 101.367 29.734 102.545 29.054C103.724 28.374 104.653 28.034 105.333 28.034C106.036 28.034 106.433 28.408 106.523 29.156C106.569 30.1533 106.693 30.652 106.897 30.652C106.965 30.652 107.045 30.618 107.135 30.55C107.226 30.3913 107.362 30.1987 107.543 29.972C107.747 29.7453 108.167 29.4507 108.801 29.088C109.459 28.7027 110.207 28.51 111.045 28.51C111.884 28.51 112.575 28.85 113.119 29.53C113.663 30.21 113.992 31.0147 114.105 31.944C114.151 32.3293 114.173 32.964 114.173 33.848L114.037 38.88C114.037 40.4213 114.389 41.4753 115.091 42.042C115.499 42.246 115.703 42.5067 115.703 42.824C115.703 43.1187 115.613 43.3907 115.431 43.64C114.57 44.864 113.165 45.476 111.215 45.476C110.286 45.4533 109.742 45.0793 109.583 44.354C109.515 44.0367 109.481 43.5493 109.481 42.892C109.481 42.212 109.538 41.158 109.651 39.73C109.787 38.2793 109.855 37.214 109.855 36.534C109.855 34.5167 109.402 33.508 108.495 33.508C107.906 33.508 107.441 33.8253 107.101 34.46C106.784 35.0947 106.625 35.718 106.625 36.33Z" fill="#AF0000"/>
</svg>
