<svg width="48" height="48" viewBox="0 0 48 48" fill="none" xmlns="http://www.w3.org/2000/svg">
<path d="M23.7321 47.882C36.6808 47.882 47.1778 37.385 47.1778 24.4363C47.1778 11.4876 36.6808 0.990631 23.7321 0.990631C10.7834 0.990631 0.286377 11.4876 0.286377 24.4363C0.286377 37.385 10.7834 47.882 23.7321 47.882Z" fill="white"/>
<path d="M38.0193 21.872H26.2964V10.1491C26.2964 9.9293 26.1499 9.78277 25.9301 9.78277H21.534C21.3142 9.78277 21.1677 9.9293 21.1677 10.1491V21.872H9.44483C9.22503 21.872 9.07849 22.0185 9.07849 22.2383V26.6344C9.07849 26.8542 9.22503 27.0007 9.44483 27.0007H21.1677V38.7235C21.1677 38.9434 21.3142 39.0899 21.534 39.0899H25.9301C26.1499 39.0899 26.2964 38.9434 26.2964 38.7235V27.0007H38.0193C38.2391 27.0007 38.3856 26.8542 38.3856 26.6344V22.2383C38.3856 22.0185 38.2391 21.872 38.0193 21.872Z" fill="#222222"/>
</svg>
