<svg width="38" height="38" viewBox="0 0 38 38" fill="none" xmlns="http://www.w3.org/2000/svg">
<path d="M28.1438 7.61743C28.4424 7.32902 28.8423 7.16943 29.2575 7.17303C29.6726 7.17664 30.0697 7.34316 30.3633 7.63672C30.6569 7.93028 30.8234 8.3274 30.827 8.74255C30.8306 9.15769 30.671 9.55765 30.3826 9.85627L21.2388 19L30.3842 28.1438C30.5354 28.2898 30.656 28.4645 30.739 28.6577C30.822 28.8509 30.8657 29.0587 30.8675 29.2689C30.8693 29.4791 30.8293 29.6876 30.7496 29.8822C30.67 30.0768 30.5525 30.2536 30.4038 30.4022C30.2551 30.5509 30.0784 30.6685 29.8838 30.7481C29.6892 30.8277 29.4807 30.8677 29.2705 30.8659C29.0602 30.8641 28.8525 30.8204 28.6593 30.7374C28.4661 30.6544 28.2914 30.5338 28.1453 30.3826L19 21.2389L9.85627 30.3826C9.55765 30.671 9.15769 30.8306 8.74255 30.827C8.3274 30.8234 7.93028 30.6569 7.63672 30.3633C7.34316 30.0698 7.17664 29.6726 7.17303 29.2575C7.16943 28.8423 7.32902 28.4424 7.61743 28.1438L16.7612 19L7.61743 9.85627C7.32902 9.55765 7.16943 9.15769 7.17303 8.74255C7.17664 8.3274 7.34316 7.93028 7.63672 7.63672C7.93028 7.34316 8.3274 7.17664 8.74255 7.17303C9.15769 7.16943 9.55765 7.32902 9.85627 7.61743L19 16.7612L28.1438 7.61585V7.61743Z" fill="#222222"/>
</svg>
