<svg width="83" height="72" viewBox="0 0 83 72" fill="none" xmlns="http://www.w3.org/2000/svg">
<path d="M37.9468 44.2871C34.8004 44.2871 32.2778 46.8025 32.2778 49.8798C32.2778 52.9839 34.8275 55.4726 37.9468 55.4726C41.0932 55.4726 43.6157 52.9572 43.6157 49.8798C43.6157 46.8025 41.0661 44.2871 37.9468 44.2871ZM37.9468 53.5191C35.9125 53.5191 34.2579 51.8868 34.2579 49.8798C34.2579 47.8729 35.9125 46.2405 37.9468 46.2405C39.9811 46.2405 41.6357 47.8729 41.6357 49.8798C41.6357 51.8868 39.9811 53.5191 37.9468 53.5191Z" fill="white"/>
<path d="M45.1616 44.073C45.1616 44.7955 44.5649 45.3842 43.8325 45.3842C43.1001 45.3842 42.5034 44.7955 42.5034 44.073C42.5034 43.3505 43.1001 42.7618 43.8325 42.7618C44.5649 42.7618 45.1616 43.3505 45.1616 44.073Z" fill="white"/>
<path d="M48.9321 45.3842C48.8778 44.2068 48.6879 43.4308 48.4167 42.735C48.1455 42.0125 47.7657 41.397 47.1419 40.8083C46.518 40.1929 45.9213 39.8182 45.1889 39.5506C44.4837 39.283 43.67 39.0957 42.5036 39.0422C41.3373 38.9887 40.9576 38.9619 37.9468 38.9619C34.936 38.9619 34.5562 38.9619 33.3899 39.0422C32.2236 39.0957 31.4098 39.283 30.7046 39.5506C29.9723 39.8182 29.3755 40.1929 28.7517 40.8083C28.1278 41.4238 27.7481 42.0125 27.4768 42.735C27.2056 43.4308 27.0157 44.2068 26.9615 45.3842C26.9072 46.5349 26.9072 46.9095 26.9072 49.8798C26.9072 52.8501 26.9072 53.2248 26.9615 54.3754C27.0157 55.5261 27.2056 56.3289 27.4768 57.0246C27.7481 57.7471 28.1278 58.3626 28.7517 58.9513C29.3755 59.5668 29.9723 59.9414 30.7046 60.209C31.4098 60.4766 32.2236 60.6639 33.3899 60.7174C34.5562 60.7709 34.936 60.7977 37.9468 60.7977C40.9576 60.7977 41.3373 60.7977 42.5036 60.7174C43.67 60.6639 44.4837 60.4766 45.1889 60.209C45.9213 59.9414 46.518 59.5668 47.1419 58.9513C47.7657 58.3358 48.1455 57.7471 48.4167 57.0246C48.6879 56.3289 48.8778 55.5261 48.9321 54.3754C48.9863 53.198 48.9863 52.8501 48.9863 49.8798C49.0134 46.9363 48.9863 46.5616 48.9321 45.3842ZM46.952 54.2951C46.8978 55.3655 46.7079 55.9275 46.5723 56.3289C46.3824 56.8373 46.1383 57.2119 45.7585 57.5866C45.3788 57.9612 44.9991 58.202 44.4837 58.3893C44.104 58.5499 43.5072 58.7105 42.4223 58.764C41.2559 58.8175 40.9033 58.8175 37.9468 58.8175C34.9902 58.8175 34.6376 58.8175 33.4713 58.764C32.3863 58.7105 31.8167 58.5499 31.4098 58.3893C30.8945 58.202 30.5147 57.9612 30.135 57.5866C29.7553 57.2119 29.5112 56.8373 29.3213 56.3289C29.1857 55.9542 28.9958 55.3655 28.9415 54.2951C28.8873 53.1445 28.8873 52.7966 28.8873 49.8798C28.8873 46.963 28.8873 46.6151 28.9415 45.4645C28.9958 44.3941 29.1857 43.8322 29.3213 43.4308C29.5112 42.9223 29.7553 42.5477 30.135 42.1731C30.5147 41.7984 30.8945 41.5576 31.4098 41.3435C31.7896 41.183 32.3863 41.0224 33.4713 40.9689C34.6376 40.9154 34.9902 40.9154 37.9468 40.9154C40.9033 40.9154 41.2559 40.9154 42.4223 40.9689C43.5072 41.0224 44.0768 41.183 44.4837 41.3435C44.9991 41.5308 45.3788 41.7717 45.7585 42.1731C46.1383 42.5477 46.3824 42.9223 46.5723 43.4308C46.735 43.8054 46.8978 44.3941 46.952 45.4645C47.0062 46.6151 47.0062 46.963 47.0062 49.8798C47.0062 52.7966 47.0062 53.1445 46.952 54.2951Z" fill="white"/>
<path d="M37.9467 28.6862C26.0663 28.6862 16.4644 38.1859 16.4644 49.8798C16.4644 61.5737 26.0934 71.0734 37.9467 71.0734C49.8 71.0734 59.4291 61.5737 59.4291 49.8798C59.4291 38.1859 49.8 28.6862 37.9467 28.6862ZM37.9467 70.1903C26.5817 70.1903 17.3595 61.0921 17.3595 49.8798C17.3595 38.6676 26.5817 29.5693 37.9467 29.5693C49.2846 29.5693 58.534 38.6676 58.534 49.8798C58.534 61.0921 49.2846 70.1903 37.9467 70.1903Z" fill="white"/>
<path d="M37.9468 27.8032C25.6053 27.8032 15.5693 37.7042 15.5693 49.8798C15.5693 62.0554 25.6053 71.9565 37.9468 71.9565C50.2883 71.9565 60.3242 62.0554 60.3242 49.8798C60.3242 37.7042 50.2883 27.8032 37.9468 27.8032ZM37.9468 70.1903C26.5818 70.1903 17.3595 61.0921 17.3595 49.8798C17.3595 38.6676 26.5818 29.5693 37.9468 29.5693C49.2847 29.5693 58.534 38.6676 58.534 49.8798C58.534 61.0921 49.2847 70.1903 37.9468 70.1903Z" fill="white"/>
<path d="M48.9321 45.3842C48.8778 44.2068 48.6879 43.4308 48.4167 42.735C48.1455 42.0125 47.7657 41.397 47.1419 40.8083C46.518 40.1929 45.9213 39.8182 45.1889 39.5506C44.4837 39.283 43.67 39.0957 42.5036 39.0422C41.3373 38.9887 40.9576 38.9619 37.9468 38.9619C34.936 38.9619 34.5562 38.9619 33.3899 39.0422C32.2236 39.0957 31.4098 39.283 30.7046 39.5506C29.9723 39.8182 29.3755 40.1929 28.7517 40.8083C28.1278 41.4238 27.7481 42.0125 27.4768 42.735C27.2056 43.4308 27.0157 44.2068 26.9615 45.3842C26.9072 46.5349 26.9072 46.9095 26.9072 49.8798C26.9072 52.8501 26.9072 53.2248 26.9615 54.3754C27.0157 55.5261 27.2056 56.3289 27.4768 57.0246C27.7481 57.7471 28.1278 58.3626 28.7517 58.9513C29.3755 59.5668 29.9723 59.9414 30.7046 60.209C31.4098 60.4766 32.2236 60.6639 33.3899 60.7174C34.5562 60.7709 34.936 60.7977 37.9468 60.7977C40.9576 60.7977 41.3373 60.7977 42.5036 60.7174C43.67 60.6639 44.4837 60.4766 45.1889 60.209C45.9213 59.9414 46.518 59.5668 47.1419 58.9513C47.7657 58.3358 48.1455 57.7471 48.4167 57.0246C48.6879 56.3289 48.8778 55.5261 48.9321 54.3754C48.9863 53.198 48.9863 52.8501 48.9863 49.8798C49.0134 46.9363 48.9863 46.5616 48.9321 45.3842ZM46.952 54.2951C46.8978 55.3655 46.7079 55.9275 46.5723 56.3289C46.3824 56.8373 46.1383 57.2119 45.7585 57.5866C45.3788 57.9612 44.9991 58.202 44.4837 58.3893C44.104 58.5499 43.5072 58.7105 42.4223 58.764C41.2559 58.8175 40.9033 58.8175 37.9468 58.8175C34.9902 58.8175 34.6376 58.8175 33.4713 58.764C32.3863 58.7105 31.8167 58.5499 31.4098 58.3893C30.8945 58.202 30.5147 57.9612 30.135 57.5866C29.7553 57.2119 29.5112 56.8373 29.3213 56.3289C29.1857 55.9542 28.9958 55.3655 28.9415 54.2951C28.8873 53.1445 28.8873 52.7966 28.8873 49.8798C28.8873 46.963 28.8873 46.6151 28.9415 45.4645C28.9958 44.3941 29.1857 43.8322 29.3213 43.4308C29.5112 42.9223 29.7553 42.5477 30.135 42.1731C30.5147 41.7984 30.8945 41.5576 31.4098 41.3435C31.7896 41.183 32.3863 41.0224 33.4713 40.9689C34.6376 40.9154 34.9902 40.9154 37.9468 40.9154C40.9033 40.9154 41.2559 40.9154 42.4223 40.9689C43.5072 41.0224 44.0768 41.183 44.4837 41.3435C44.9991 41.5308 45.3788 41.7717 45.7585 42.1731C46.1383 42.5477 46.3824 42.9223 46.5723 43.4308C46.735 43.8054 46.8978 44.3941 46.952 45.4645C47.0062 46.6151 47.0062 46.963 47.0062 49.8798C47.0062 52.7966 47.0062 53.1445 46.952 54.2951Z" fill="white"/>
<path d="M37.9468 44.287C34.8004 44.287 32.2778 46.8024 32.2778 49.8798C32.2778 52.9839 34.8275 55.4725 37.9468 55.4725C41.0932 55.4725 43.6157 52.9571 43.6157 49.8798C43.6157 46.8024 41.0661 44.287 37.9468 44.287ZM37.9468 53.5191C35.9125 53.5191 34.2579 51.8868 34.2579 49.8798C34.2579 47.8728 35.9125 46.2405 37.9468 46.2405C39.9811 46.2405 41.6357 47.8728 41.6357 49.8798C41.6357 51.8868 39.9811 53.5191 37.9468 53.5191Z" fill="white"/>
<path d="M45.1616 44.073C45.1616 44.7955 44.5649 45.3842 43.8325 45.3842C43.1001 45.3842 42.5034 44.7955 42.5034 44.073C42.5034 43.3505 43.1001 42.7618 43.8325 42.7618C44.5649 42.7618 45.1616 43.3505 45.1616 44.073Z" fill="white"/>
<path d="M33.8778 6.60961C35.7203 6.60961 37.2141 5.13599 37.2141 3.31819C37.2141 1.50039 35.7203 0.0267639 33.8778 0.0267639C32.0352 0.0267639 30.5415 1.50039 30.5415 3.31819C30.5415 5.13599 32.0352 6.60961 33.8778 6.60961Z" fill="white"/>
<path d="M79.555 59.2724C81.3976 59.2724 82.8913 57.7988 82.8913 55.981C82.8913 54.1632 81.3976 52.6896 79.555 52.6896C77.7124 52.6896 76.2188 54.1632 76.2188 55.981C76.2188 57.7988 77.7124 59.2724 79.555 59.2724Z" fill="white"/>
<path d="M3.44467 59.2724C5.28725 59.2724 6.78095 57.7988 6.78095 55.981C6.78095 54.1632 5.28725 52.6896 3.44467 52.6896C1.6021 52.6896 0.108398 54.1632 0.108398 55.981C0.108398 57.7988 1.6021 59.2724 3.44467 59.2724Z" fill="white"/>
<path d="M70.7125 17.7683C70.2243 17.7683 69.8174 17.3669 69.8174 16.8853V14.5037C69.8174 14.022 70.2243 13.6206 70.7125 13.6206C71.2007 13.6206 71.6076 14.022 71.6076 14.5037V16.8853C71.6347 17.3937 71.2278 17.7683 70.7125 17.7683Z" fill="white"/>
<path d="M74.5372 19.3204C74.2931 19.3204 74.0761 19.2401 73.9134 19.0528C73.5608 18.7049 73.5608 18.143 73.9134 17.7951L75.6222 16.1093C75.9748 15.7614 76.5444 15.7614 76.897 16.1093C77.2497 16.4571 77.2497 17.0191 76.897 17.367L75.1882 19.0528C74.9984 19.2401 74.7542 19.3204 74.5372 19.3204Z" fill="white"/>
<path d="M78.5244 23.0935H76.1646C75.6764 23.0935 75.2695 22.6921 75.2695 22.2104C75.2695 21.7288 75.6764 21.3274 76.1646 21.3274H78.5244C79.0127 21.3274 79.4195 21.7288 79.4195 22.2104C79.4195 22.6921 79.0127 23.0935 78.5244 23.0935Z" fill="white"/>
<path d="M76.2461 28.5257C76.0291 28.5257 75.785 28.4454 75.6222 28.2581L73.9134 26.5723C73.5608 26.2244 73.5608 25.6624 73.9134 25.3146C74.266 24.9667 74.8356 24.9667 75.1882 25.3146L76.897 27.0004C77.2497 27.3483 77.2497 27.9102 76.897 28.2581C76.6801 28.4187 76.4631 28.5257 76.2461 28.5257Z" fill="white"/>
<path d="M70.7125 30.7735C70.2243 30.7735 69.8174 30.3721 69.8174 29.8904V27.5624C69.8174 27.0807 70.2243 26.6793 70.7125 26.6793C71.2007 26.6793 71.6076 27.0807 71.6076 27.5624V29.8904C71.6347 30.3721 71.2278 30.7735 70.7125 30.7735Z" fill="white"/>
<path d="M65.2067 28.5257C64.9626 28.5257 64.7456 28.4454 64.5828 28.2581C64.2302 27.9102 64.2302 27.3483 64.5828 27.0004L66.2916 25.3146C66.6443 24.9667 67.2139 24.9667 67.5665 25.3146C67.9191 25.6624 67.9191 26.2244 67.5665 26.5723L65.8577 28.2581C65.6678 28.4187 65.4508 28.5257 65.2067 28.5257Z" fill="white"/>
<path d="M65.3147 23.0935H62.9278C62.4396 23.0935 62.0327 22.6921 62.0327 22.2104C62.0327 21.7288 62.4396 21.3274 62.9278 21.3274H65.2876C65.7759 21.3274 66.1827 21.7288 66.1827 22.2104C66.2098 22.6921 65.803 23.0935 65.3147 23.0935Z" fill="white"/>
<path d="M66.9155 19.3204C66.6714 19.3204 66.4544 19.2401 66.2916 19.0528L64.5828 17.367C64.2302 17.0191 64.2302 16.4571 64.5828 16.1093C64.9354 15.7614 65.505 15.7614 65.8577 16.1093L67.5665 17.7951C67.9191 18.143 67.9191 18.7049 67.5665 19.0528C67.3766 19.2401 67.1596 19.3204 66.9155 19.3204Z" fill="white"/>
<path d="M11.9888 22.2372C11.5006 22.2372 11.0938 21.8358 11.0938 21.3541V19.1599C11.0938 18.6782 11.5006 18.2768 11.9888 18.2768C12.4771 18.2768 12.8839 18.6782 12.8839 19.1599V21.3541C12.8839 21.8358 12.4771 22.2372 11.9888 22.2372Z" fill="white"/>
<path d="M11.9888 32.0579C11.5006 32.0579 11.0938 31.6566 11.0938 31.1749V28.9806C11.0938 28.4989 11.5006 28.0975 11.9888 28.0975C12.4771 28.0975 12.8839 28.4989 12.8839 28.9806V31.1749C12.8839 31.6566 12.4771 32.0579 11.9888 32.0579Z" fill="white"/>
<path d="M18.0919 26.037H15.8678C15.3795 26.037 14.9727 25.6356 14.9727 25.154C14.9727 24.6723 15.3795 24.2709 15.8678 24.2709H18.0919C18.5802 24.2709 18.987 24.6723 18.987 25.154C18.987 25.6356 18.5802 26.037 18.0919 26.037Z" fill="white"/>
<path d="M8.13735 26.037H5.91317C5.42493 26.037 5.01807 25.6356 5.01807 25.154C5.01807 24.6723 5.42493 24.2709 5.91317 24.2709H8.13735C8.62558 24.2709 9.03245 24.6723 9.03245 25.154C9.03245 25.6356 8.62558 26.037 8.13735 26.037Z" fill="white"/>
</svg>
