<svg width="55" height="55" viewBox="0 0 55 55" fill="none" xmlns="http://www.w3.org/2000/svg">
<g filter="url(#filter0_d_220_60)">
<path d="M28.0533 0.130005C35.364 0.130005 42.1331 3.37338 46.6218 8.83481C46.7497 8.98962 46.8451 9.16857 46.9024 9.36103C46.9597 9.55348 46.9778 9.75551 46.9554 9.95507C46.9331 10.1546 46.8708 10.3477 46.7724 10.5227C46.6739 10.6977 46.5413 10.8511 46.3824 10.9738C46.0588 11.2275 45.6492 11.3451 45.2404 11.3017C44.8315 11.2583 44.4557 11.0573 44.1926 10.7413C42.2299 8.36335 39.7638 6.45082 36.9725 5.1417C34.1811 3.83259 31.134 3.15953 28.051 3.17111C16.6259 3.17111 7.36256 12.22 7.36256 23.38C7.36256 34.54 16.6259 43.5889 28.051 43.5889C34.5016 43.5889 40.4594 40.6873 44.36 35.8164C44.6187 35.4972 44.9914 35.2913 45.3993 35.2423C45.8072 35.1932 46.2181 35.3049 46.5451 35.5537C46.7054 35.6743 46.8399 35.8259 46.9405 35.9995C47.0411 36.1731 47.1058 36.3652 47.1307 36.5643C47.1556 36.7633 47.1403 36.9654 47.0856 37.1585C47.0309 37.3515 46.938 37.5316 46.8124 37.6881C42.3307 43.2913 35.4709 46.63 28.0533 46.63C14.9034 46.63 4.25 36.221 4.25 23.38C4.25 10.539 14.9057 0.130005 28.0533 0.130005ZM43.995 16.777L50.2853 23.0708C50.8943 23.6776 50.9059 24.6518 50.3132 25.247L44.1671 31.392C43.8754 31.6774 43.4824 31.8353 43.0744 31.8309C42.6663 31.8266 42.2768 31.6603 41.9913 31.3687C41.8464 31.2274 41.7308 31.059 41.6511 30.873C41.5714 30.687 41.5292 30.4871 41.5268 30.2847C41.5244 30.0824 41.562 29.8816 41.6373 29.6938C41.7126 29.5059 41.8242 29.3348 41.9657 29.1902L45.5618 25.5934H21.5957C21.3937 25.5959 21.1931 25.5585 21.0054 25.4834C20.8178 25.4083 20.6468 25.297 20.5021 25.1558C20.3575 25.0146 20.2421 24.8463 20.1625 24.6605C20.0829 24.4747 20.0407 24.275 20.0383 24.0729C20.0383 23.2312 20.7357 22.55 21.5957 22.55H45.4665L41.8448 18.9276C41.553 18.6424 41.3863 18.2529 41.3815 17.8448C41.3767 17.4367 41.5342 17.0434 41.8193 16.7514C42.1112 16.4663 42.5044 16.3088 42.9125 16.3136C43.3205 16.3184 43.7099 16.4851 43.995 16.777Z" fill="white"/>
</g>
<defs>
<filter id="filter0_d_220_60" x="0.25" y="0.130005" width="54.5" height="54.5" filterUnits="userSpaceOnUse" color-interpolation-filters="sRGB">
<feFlood flood-opacity="0" result="BackgroundImageFix"/>
<feColorMatrix in="SourceAlpha" type="matrix" values="0 0 0 0 0 0 0 0 0 0 0 0 0 0 0 0 0 0 127 0" result="hardAlpha"/>
<feOffset dy="4"/>
<feGaussianBlur stdDeviation="2"/>
<feComposite in2="hardAlpha" operator="out"/>
<feColorMatrix type="matrix" values="0 0 0 0 0 0 0 0 0 0 0 0 0 0 0 0 0 0 0.25 0"/>
<feBlend mode="normal" in2="BackgroundImageFix" result="effect1_dropShadow_220_60"/>
<feBlend mode="normal" in="SourceGraphic" in2="effect1_dropShadow_220_60" result="shape"/>
</filter>
</defs>
</svg>
